<?xml version="1.0" encoding="utf-8"?>
<!-- Generator: Adobe Illustrator 27.3.1, SVG Export Plug-In . SVG Version: 6.00 Build 0)  -->
<svg version="1.1" id="Layer_1" xmlns="http://www.w3.org/2000/svg" xmlns:xlink="http://www.w3.org/1999/xlink" x="0px" y="0px"
	 viewBox="0 0 513 84" style="enable-background:new 0 0 513 84;" xml:space="preserve">
<style type="text/css">
	.st0{fill:#822619;stroke:#000000;stroke-miterlimit:10;}
	.st1{fill:#1B6568;stroke:#000000;stroke-miterlimit:10;}
	.st2{fill:#FFFFFF;stroke:#000000;stroke-width:3;stroke-miterlimit:10;}
</style>
<g>
	<path class="st0" d="M470.9,6.2c-3.8,0-7.4,0.5-10.9,1.5c13.7,3.9,22.4,15.2,22.4,29c0,17.4-11.8,33.2-28.8,38
		c3.4,1,7.1,1.5,11,1.5c22.6,0,39.6-18.7,39.6-39.5C504.3,19.5,490.7,6.2,470.9,6.2z"/>
</g>
<g>
	<path class="st1" d="M453.8,6.2c-3.8,0-7.4,0.5-10.9,1.5c13.7,3.9,22.4,15.2,22.4,29c0,17.4-11.8,33.2-28.8,38
		c3.4,1,7.1,1.5,11,1.5c22.6,0,39.6-18.7,39.6-39.5C487.2,19.5,473.6,6.2,453.8,6.2z"/>
</g>
<g>
	<path class="st2" d="M89,75.4c-0.7-1-2-1.4-3.1-1c-4.3,1.6-8.8,2.5-13.6,2.5c-20.2,0-34.2-13.5-34.2-31.1
		c0-21.3,17.4-40.3,40.4-40.3c20.2,0,34.2,13.5,34.2,31.1c0,9.3-3.6,18.4-9.5,25.5c-0.8,0.9-0.8,2.3-0.1,3.3l2.1,2.8
		c0.9,1.2,0.6,3-0.7,3.8l-10.2,6.6c-1.2,0.8-2.8,0.5-3.7-0.7L89,75.4z M74.9,57.4l-4.6-6.2c-0.9-1.2-0.6-3,0.7-3.8l10.2-6.6
		c1.2-0.8,2.9-0.5,3.7,0.7v0c1.4,2.1,4.7,1.2,4.9-1.3c0-0.4,0-0.9,0-1.3c0-7.7-4.4-13.3-12.7-13.3c-9.8,0-16,9.4-16,18.5
		c0,7.7,4.4,13.3,12.7,13.3C74.1,57.4,74.5,57.4,74.9,57.4z"/>
	<path class="st2" d="M116.2,52.1c0-3.5,0.5-7.4,1.5-11.1l8.7-32.3c0.3-1.2,1.4-2,2.6-2h17.8c1.8,0,3,1.7,2.6,3.4l-8.7,32.4
		c-0.5,2-0.8,3.8-0.8,5.4c0,5.7,3.3,8.6,9.4,8.6c2.8,0,5.5-1,7.4-2.8c2.1-2.1,3.4-4.7,4.9-10l9.4-34.9c0.3-1.2,1.4-2,2.6-2h17.8
		c1.8,0,3,1.7,2.6,3.4l-10,37.1c-2.5,9.1-6,15.8-10.8,20.6c-6.5,6.5-16.3,9-27.2,9C126.6,76.9,116.2,67.7,116.2,52.1z"/>
	<path class="st2" d="M225.3,6.3h19.1c1.3,0,2.4,1,2.6,2.3l9.6,63.9c0.2,1.6-1,3.1-2.6,3.1h-19c-1.3,0-2.5-1-2.6-2.3l-0.6-4.6
		c-0.2-1.3-1.3-2.3-2.6-2.3h-20.3c-0.9,0-1.7,0.5-2.2,1.2l-4.4,6.8c-0.5,0.8-1.3,1.2-2.2,1.2h-18.5c-2.1,0-3.4-2.4-2.2-4.2
		l43.8-63.9C223.6,6.7,224.4,6.3,225.3,6.3z M229.8,47l-0.7-6.3c-0.3-2.5-3.5-3.3-4.9-1.1l-4,6.3c-1.1,1.8,0.1,4.1,2.2,4.1h4.7
		C228.8,50,230,48.6,229.8,47z"/>
	<path class="st2" d="M277.2,26.2H264c-1.8,0-3-1.7-2.6-3.4l3.8-14.1c0.3-1.2,1.4-2,2.6-2h57.9c1.8,0,3,1.7,2.6,3.4l-3.8,14.1
		c-0.3,1.2-1.4,2-2.6,2h-16.1c-1.2,0-2.3,0.8-2.6,2L291,73.5c-0.3,1.2-1.4,2-2.6,2h-17.4c-1.8,0-3-1.7-2.6-3.4l11.4-42.6
		C280.3,27.9,279,26.2,277.2,26.2z"/>
	<path class="st2" d="M333.6,8.8c0.3-1.2,1.4-2,2.6-2h24.8c12.7,0,20.7,2.7,25.3,7.4c3.8,3.8,5.4,8.9,5.4,14.3
		c0,10-4.9,18.7-16.5,23.2c-1.4,0.5-2.1,2.1-1.5,3.5l6.9,16.6c0.7,1.8-0.6,3.7-2.5,3.7h-18.9c-1.1,0-2.1-0.7-2.5-1.7l-6.3-16.2
		c-0.4-1-1.4-1.7-2.5-1.7H346c-1.2,0-2.3,0.8-2.6,2l-4.2,15.7c-0.3,1.2-1.4,2-2.6,2h-17.5c-1.8,0-3-1.7-2.6-3.4L333.6,8.8z
		 M356.6,39.5c7.7,0,11.7-3.5,11.7-7.9c0-1.4-0.5-2.7-1.5-3.6c-1.3-1.3-3.5-2-6.8-2h-6.1c-1.2,0-2.3,0.8-2.6,2l-2.2,8.1
		c-0.5,1.7,0.8,3.4,2.6,3.4H356.6z"/>
	<path class="st2" d="M393.8,45.8c0-21.3,17.4-40.3,40.4-40.3c20.2,0,34.2,13.5,34.2,31.1c0,21.3-17.4,40.3-40.4,40.3
		C407.7,76.9,393.8,63.3,393.8,45.8z M445.3,38.6c0-7.3-4.4-13-12.7-13c-9.6,0-15.8,9.4-15.8,18.1c0,7.3,4.4,13,12.7,13
		C439.1,56.7,445.3,47.2,445.3,38.6z"/>
</g>
</svg>
